<?xml version="1.0" encoding="UTF-8" standalone="no"?>
<!-- License Agreement at http://iconmonstr.com/license/ -->

<svg
   xmlns:dc="http://purl.org/dc/elements/1.1/"
   xmlns:cc="http://creativecommons.org/ns#"
   xmlns:rdf="http://www.w3.org/1999/02/22-rdf-syntax-ns#"
   xmlns:svg="http://www.w3.org/2000/svg"
   xmlns="http://www.w3.org/2000/svg"
   xmlns:sodipodi="http://sodipodi.sourceforge.net/DTD/sodipodi-0.dtd"
   xmlns:inkscape="http://www.inkscape.org/namespaces/inkscape"
   version="1.1"
   x="0px"
   y="0px"
   width="512px"
   height="512px"
   viewBox="0 0 512 512"
   enable-background="new 0 0 512 512"
   xml:space="preserve"
   id="svg2"
   inkscape:version="0.48.4 r9939"
   sodipodi:docname="iconmonstr-quote-10-icon.svg"><metadata
   id="metadata9"><rdf:RDF><cc:Work
       rdf:about=""><dc:format>image/svg+xml</dc:format><dc:type
         rdf:resource="http://purl.org/dc/dcmitype/StillImage" /></cc:Work></rdf:RDF></metadata><defs
   id="defs7" /><sodipodi:namedview
   pagecolor="#ffffff"
   bordercolor="#666666"
   borderopacity="1"
   objecttolerance="10"
   gridtolerance="10"
   guidetolerance="10"
   inkscape:pageopacity="0"
   inkscape:pageshadow="2"
   inkscape:window-width="1600"
   inkscape:window-height="838"
   id="namedview5"
   showgrid="false"
   inkscape:zoom="0.4609375"
   inkscape:cx="256"
   inkscape:cy="256"
   inkscape:window-x="-8"
   inkscape:window-y="-8"
   inkscape:window-maximized="1"
   inkscape:current-layer="svg2" />
<path
   id="quote-10-icon"
   d="M373.38,138.62c64.87,64.87,64.882,169.878,0,234.76c-64.873,64.873-169.878,64.882-234.76,0  c-64.869-64.869-64.882-169.878,0-234.76C203.493,73.747,308.498,73.738,373.38,138.62z M256,49.999  c-113.771,0-206,92.23-206,206.002c0,113.77,92.229,206,206,206s206-92.23,206-206C462,142.229,369.771,49.999,256,49.999z   M243.009,198.422c0,0,0,25.597,0,53.763c0,48.062-30.372,80.639-74.628,89.394l-8.387-18.126  c20.494-7.725,33.495-26.213,33.495-44.841h-34.598v-80.189H243.009z M361.108,198.422c0,0,0,25.597,0,53.763  c0,48.062-30.372,80.639-74.629,89.394l-8.386-18.126c20.493-7.725,33.494-26.213,33.494-44.841h-34.596v-80.189H361.108z"
   style="fill:#f58026;fill-opacity:1" />
</svg>